# xmcd CD database file
#
# Track frame offsets:
#	150
#	19727
#	33480
#	50815
#	66663
#	86489
#	101837
#	122799
#	143281
#	162132
#	183153
#	198023
#
# Disc length: 2873 seconds
#
# Revision: 0
# Processed by: cddbd v1.5.2PL0 Copyright (c) Steve Scherf et al.
# Submitted via: CDex 1.70beta2
#
DISCID=9f0b370c
DTITLE=Joe Filisko and Eric Noden - Missed Train Blues
DYEAR=1900
DGENRE=Blues
TTITLE0=Bird Song
TTITLE1=Waterfall
TTITLE2=If You Call Out
TTITLE3=Fat Cats and Thin Dogs
TTITLE4=Missed Train Blues
TTITLE5=The Grind
TTITLE6=Love Gone Bad
TTITLE7=Ballad Of The Peg Leg
TTITLE8=Live Every Day
TTITLE9=Titan's Blues
TTITLE10=Travelin' Shoes
TTITLE11=Roo Chase (Jumpin' Joey)
EXTD=
EXTT0=
EXTT1=
EXTT2=
EXTT3=
EXTT4=
EXTT5=
EXTT6=
EXTT7=
EXTT8=
EXTT9=
EXTT10=
EXTT11=
PLAYORDER=
